<svg width="720" height="722" xmlns="http://www.w3.org/2000/svg" xmlns:xlink="http://www.w3.org/1999/xlink" xml:space="preserve" overflow="hidden"><g transform="translate(-280 -18)"><g><g><g><g><path d="M640.31 19.3178C640.215 19.3178 640.087 19.3337 639.992 19.3337 639.881 19.3337 639.786 19.3178 639.674 19.3178 441.047 19.3178 280 180.349 280 379.008 280 577.635 441.047 738.682 639.674 738.682 639.786 738.682 639.881 738.682 639.992 738.682 640.087 738.682 640.215 738.682 640.31 738.682 838.937 738.682 999.984 577.635 999.984 379.008 1000 180.349 838.953 19.3178 640.31 19.3178ZM640.31 635.714C640.215 635.714 640.087 635.698 639.992 635.698 639.881 635.698 639.786 635.714 639.674 635.714 607.163 635.714 580.801 609.368 580.801 576.841 580.801 544.345 607.163 517.999 639.674 517.999 639.786 517.999 639.881 517.999 639.992 517.999 640.087 517.999 640.215 517.999 640.31 517.999 672.805 517.999 699.199 544.345 699.199 576.841 699.199 609.352 672.853 635.714 640.31 635.714ZM724.734 187.086C720.889 245.832 694.035 420.545 694.035 420.545 694.035 450.005 669.897 473.872 640.437 473.872 640.278 473.872 640.119 473.872 639.976 473.872 639.833 473.872 639.658 473.872 639.515 473.872 610.071 473.872 585.934 449.974 585.934 420.545 585.934 420.545 559.095 245.832 555.25 187.086 553.343 157.674 575.875 103.059 639.531 103.059 639.69 103.059 639.849 103.075 639.992 103.075 640.135 103.075 640.294 103.059 640.453 103.059 704.093 103.059 726.657 157.674 724.734 187.086Z" fill="#000000" fill-rule="nonzero" fill-opacity="1"/></g></g></g></g></g></svg>